<?xml version="1.0" standalone="no"?>
<!DOCTYPE svg PUBLIC "-//W3C//DTD SVG 20010904//EN"
 "http://www.w3.org/TR/2001/REC-SVG-20010904/DTD/svg10.dtd">
<svg version="1.0" xmlns="http://www.w3.org/2000/svg"
 width="700.000000pt" height="700.000000pt" viewBox="0 0 700.000000 700.000000"
 preserveAspectRatio="xMidYMid meet">
<metadata>
Created by potrace 1.14, written by Peter Selinger 2001-2017
</metadata>
<g transform="translate(0.000000,700.000000) scale(0.100000,-0.100000)"
fill="#000000" stroke="none">
<path d="M1094 6980 c-58 -20 -121 -63 -157 -106 -26 -31 -82 -124 -472 -779
-131 -220 -257 -432 -281 -471 -79 -132 -141 -282 -158 -385 -3 -19 -9 -45
-12 -59 -13 -51 -11 -311 2 -378 19 -92 34 -153 45 -177 4 -11 18 -45 30 -75
65 -171 205 -349 355 -452 320 -220 779 -212 1129 20 81 54 107 76 187 155
l59 57 75 -74 c177 -173 385 -274 639 -311 45 -6 210 -8 240 -2 11 3 42 8 68
11 111 17 282 81 382 145 63 40 174 130 226 183 l47 49 77 -75 c77 -76 198
-163 290 -209 53 -26 183 -73 225 -80 14 -3 36 -8 50 -11 77 -17 235 -22 325
-11 237 30 451 134 630 307 l82 77 75 -72 c86 -83 94 -90 168 -138 124 -82
247 -132 404 -164 64 -14 252 -21 301 -11 11 2 43 6 70 10 348 48 663 353 764
740 31 117 35 157 35 301 0 129 -5 191 -23 253 -5 18 -9 33 -9 35 3 9 -38 130
-62 182 -16 35 -126 227 -246 427 -119 199 -225 379 -236 398 -11 19 -92 155
-179 301 -160 269 -205 328 -277 363 -20 10 -46 23 -57 30 -15 8 -638 11
-2390 13 -2269 2 -2372 1 -2421 -17z"/>
<path d="M1350 3549 c-112 -32 -228 -47 -370 -47 -128 0 -235 13 -327 38 l-33
8 -1 -56 c-4 -347 1 -2706 6 -2732 3 -19 8 -46 10 -60 10 -52 14 -69 28 -111
47 -137 118 -252 215 -349 108 -107 225 -175 372 -217 62 -17 159 -18 2250
-18 l2185 0 78 23 c142 41 252 106 358 212 102 101 174 222 218 364 21 69 25
84 36 166 5 33 10 2318 6 2717 l-1 62 -32 -10 c-35 -10 -55 -14 -158 -28 -66
-9 -330 -7 -385 3 -86 16 -145 29 -189 43 -26 8 -50 12 -53 9 -3 -2 -5 -412
-5 -910 l1 -906 -2059 0 -2058 0 -1 878 c0 482 0 892 0 910 -1 37 -2 37 -91
11z"/>
</g>
</svg>
