<svg width="150" height="150" viewBox="0 0 150 150" fill="none" xmlns="http://www.w3.org/2000/svg">
    <g clip-path="url(#clip0_71_6)">
        <path d="M146.563 30.4102L130.766 3.83789C129.36 1.46484 126.851 0 124.177 0H25.8122C23.1381 0 20.6293 1.46484 19.2233 3.83789L3.39894 30.4102C-4.76136 44.1211 2.46161 63.1934 17.707 65.3906C18.8098 65.5371 19.9401 65.625 21.0429 65.625C28.2383 65.625 34.6342 62.2852 39.0176 57.1289C43.401 62.2852 49.7969 65.625 56.9923 65.625C64.1877 65.625 70.5836 62.2852 74.967 57.1289C79.3505 62.2852 85.7464 65.625 92.9418 65.625C100.165 65.625 106.533 62.2852 110.917 57.1289C115.327 62.2852 121.696 65.625 128.891 65.625C130.022 65.625 131.124 65.5371 132.227 65.3906C147.528 63.2227 154.778 44.1504 146.59 30.4102H146.563ZM133.357 74.6777H133.33C131.869 74.8828 130.38 75 128.864 75C125.445 75 122.165 74.4434 119.104 73.4473V112.5H30.8848V73.418C27.7972 74.4434 24.4889 75 21.0704 75C19.5541 75 18.0379 74.8828 16.5767 74.6777H16.5492C15.4189 74.502 14.3161 74.2969 13.2409 74.0039V112.5V131.25C13.2409 141.592 21.1531 150 30.8848 150H119.104C128.836 150 136.748 141.592 136.748 131.25V112.5V74.0039C135.646 74.2969 134.543 74.5312 133.357 74.6777Z" fill="#0B78FF"/>
    </g>
    <defs>
        <clipPath id="clip0_71_6">
            <rect width="150" height="150" fill="white"/>
        </clipPath>
    </defs>
</svg>
